<svg width="30" height="30" viewBox="0 0 30 30" fill="none" xmlns="http://www.w3.org/2000/svg">
<path d="M27.4664 24.6095C25.8597 21.7896 23.3509 19.5924 20.3437 18.3716C21.8392 17.25 22.9438 15.6864 23.5011 13.9021C24.0585 12.1179 24.0403 10.2035 23.4492 8.43018C22.8581 6.65684 21.724 5.11444 20.2076 4.02146C18.6911 2.92848 16.8693 2.34033 15 2.34033C13.1307 2.34033 11.3088 2.92848 9.79242 4.02146C8.27599 5.11444 7.1419 6.65684 6.55079 8.43018C5.95967 10.2035 5.94151 12.1179 6.49886 13.9021C7.05622 15.6864 8.16084 17.25 9.65625 18.3716C6.64913 19.5924 4.14028 21.7896 2.53359 24.6095C2.43404 24.7696 2.36768 24.948 2.33848 25.1343C2.30927 25.3205 2.31781 25.5107 2.36358 25.6936C2.40935 25.8765 2.49142 26.0483 2.60492 26.1988C2.71842 26.3493 2.86102 26.4755 3.02425 26.5698C3.18748 26.6641 3.368 26.7246 3.55509 26.7477C3.74218 26.7709 3.93201 26.7562 4.1133 26.7045C4.29459 26.6528 4.46364 26.5652 4.6104 26.4469C4.75715 26.3286 4.87862 26.1819 4.96758 26.0157C7.09101 22.3454 10.841 20.1563 15 20.1563C19.159 20.1563 22.909 22.3466 25.0324 26.0157C25.2252 26.3257 25.531 26.5486 25.8851 26.6372C26.2393 26.7259 26.614 26.6733 26.9301 26.4907C27.2462 26.3081 27.4788 26.0097 27.5789 25.6586C27.679 25.3076 27.6387 24.9313 27.4664 24.6095ZM8.90625 11.2501C8.90625 10.0449 9.26364 8.8667 9.93323 7.86459C10.6028 6.86248 11.5545 6.08143 12.668 5.62021C13.7815 5.15899 15.0068 5.03831 16.1888 5.27344C17.3709 5.50857 18.4567 6.08894 19.3089 6.94117C20.1612 7.79339 20.7415 8.87919 20.9767 10.0613C21.2118 11.2433 21.0911 12.4686 20.6299 13.5821C20.1687 14.6956 19.3876 15.6473 18.3855 16.3169C17.3834 16.9865 16.2052 17.3438 15 17.3438C13.3844 17.342 11.8355 16.6994 10.6931 15.557C9.55072 14.4146 8.90811 12.8657 8.90625 11.2501Z" fill="#18181B"/>
</svg>
